<?xml version="1.0" standalone="no"?>
<!DOCTYPE svg PUBLIC "-//W3C//DTD SVG 20010904//EN"
 "http://www.w3.org/TR/2001/REC-SVG-20010904/DTD/svg10.dtd">
<svg version="1.0" xmlns="http://www.w3.org/2000/svg"
 width="254.000000pt" height="289.000000pt" viewBox="0 0 254.000000 289.000000"
 preserveAspectRatio="xMidYMid meet">

<g transform="translate(0.000000,289.000000) scale(0.100000,-0.100000)"
fill="#000000" stroke="none">
<path d="M1190 2605 c0 -8 -9 -19 -20 -25 -11 -6 -20 -19 -20 -30 0 -10 -5
-20 -11 -22 -18 -6 -24 -102 -8 -119 13 -12 23 -69 13 -69 -2 0 -10 16 -18 35
-10 23 -22 35 -35 35 -11 0 -24 6 -28 14 -4 7 -27 15 -50 18 l-43 3 7 -38 c4
-26 2 -42 -6 -47 -9 -5 -6 -15 13 -35 14 -15 23 -31 20 -36 -2 -5 7 -11 21
-15 l26 -6 -27 -15 c-15 -7 -34 -11 -42 -8 -8 3 -12 0 -10 -7 3 -7 14 -14 26
-16 14 -2 22 -11 22 -23 0 -11 7 -19 16 -19 9 0 12 -5 8 -11 -9 -14 64 -3 84
13 6 6 12 7 12 3 0 -4 -8 -14 -17 -22 -16 -13 -16 -13 7 -7 32 8 50 23 50 40
0 8 3 14 8 14 4 0 7 -47 7 -105 1 -106 -6 -124 -34 -91 -7 8 -37 26 -68 40
-30 15 -61 33 -69 40 -7 8 -36 17 -64 21 l-50 7 24 29 c20 23 23 34 17 61 -4
18 -8 36 -9 41 -1 4 -2 12 -2 18 0 5 -4 8 -9 4 -5 -3 -12 -1 -16 5 -13 21 -26
9 -22 -22 2 -18 2 -25 0 -15 -5 18 -33 24 -33 6 0 -6 7 -17 15 -25 19 -19 19
-34 0 -34 -8 0 -17 14 -21 36 -9 47 -36 74 -74 74 -16 0 -30 4 -30 9 0 5 -9
11 -20 14 -19 5 -20 1 -19 -49 2 -55 24 -94 54 -94 8 0 15 -5 15 -11 0 -7 -8
-9 -22 -3 -32 10 -109 8 -117 -4 -3 -5 -24 -21 -45 -36 -22 -15 -32 -26 -22
-26 9 0 16 -4 16 -9 0 -11 39 -26 58 -23 6 2 12 -1 12 -7 0 -5 -6 -11 -12 -14
-7 -2 4 -6 25 -9 22 -2 50 1 63 8 13 7 26 9 28 5 3 -4 -5 -14 -19 -21 -20 -10
-23 -19 -22 -56 l2 -44 47 0 c42 0 48 3 54 25 3 14 10 25 14 25 4 0 6 11 5 25
-2 14 1 23 6 19 5 -3 9 -18 9 -35 0 -18 5 -29 14 -29 8 0 18 -9 21 -20 3 -11
10 -20 14 -20 11 0 32 50 26 60 -3 5 -1 11 5 15 7 4 7 12 0 26 -8 14 -7 19 1
19 7 0 6 9 -5 25 -21 31 -20 35 4 35 11 0 20 -4 20 -10 0 -5 9 -10 20 -10 29
0 148 -60 181 -91 33 -30 38 -64 12 -72 -70 -23 -162 -46 -180 -47 -13 0 -23
-4 -23 -10 0 -6 -50 -10 -130 -10 -71 0 -130 4 -130 9 0 7 -74 26 -91 23 -4
-1 -6 6 -5 16 2 23 -31 27 -42 5 -14 -25 14 -66 28 -43 5 8 10 10 10 5 0 -6
10 -21 23 -35 40 -44 51 -87 50 -196 0 -100 -20 -264 -32 -274 -4 -3 -16 -50
-26 -105 -25 -130 -25 -275 0 -341 10 -27 21 -51 24 -54 3 -3 13 -18 21 -34
14 -28 56 -75 93 -104 56 -43 86 -52 274 -82 60 -10 79 -18 112 -47 34 -29 39
-38 30 -54 -12 -23 4 -59 26 -59 16 0 39 36 30 49 -3 5 -13 8 -23 6 -9 -1 -11
0 -4 2 6 3 12 9 12 14 0 5 15 25 33 44 28 30 44 37 98 45 35 6 96 15 134 21
72 12 144 41 158 65 4 8 14 14 21 14 19 0 76 66 88 102 5 15 14 28 18 28 14 0
28 59 35 140 7 78 -17 279 -34 289 -9 6 -25 80 -42 201 -12 85 -6 228 12 280
13 37 41 70 59 70 6 0 8 5 5 10 -3 6 0 10 8 10 23 0 31 33 12 47 -20 14 -48 6
-41 -13 3 -8 -6 -15 -25 -19 -16 -4 -37 -14 -46 -23 -14 -14 -38 -17 -156 -16
-79 0 -142 5 -145 11 -4 5 -36 18 -72 27 -97 27 -122 42 -115 69 8 29 67 82
121 108 24 11 44 25 44 30 0 8 100 42 107 35 2 -2 -6 -21 -19 -42 -12 -21 -16
-34 -9 -30 9 6 12 3 10 -10 -4 -20 19 -84 30 -84 3 0 12 9 19 20 19 31 48 21
65 -22 3 -10 12 -15 21 -12 8 3 17 1 21 -5 3 -6 19 -11 34 -11 48 0 49 62 4
114 -27 30 -26 31 21 11 20 -8 36 -11 36 -6 0 5 12 12 28 16 15 4 21 10 15 12
-20 7 -15 23 6 23 11 0 32 11 47 23 l27 24 -46 14 c-32 9 -47 19 -47 30 0 9
-6 19 -13 22 -18 7 -67 -3 -67 -14 0 -5 -7 -9 -15 -9 -22 0 -18 18 5 25 17 5
20 15 20 58 0 29 -4 48 -8 42 -4 -5 -22 -15 -39 -22 -31 -10 -32 -10 -23 8 14
26 4 24 -27 -5 -21 -20 -25 -30 -20 -58 6 -31 5 -32 -6 -8 -6 14 -17 31 -23
37 -7 7 -14 18 -17 25 -7 21 -47 -21 -47 -49 0 -14 -4 -21 -10 -18 -19 12 -10
-32 10 -50 25 -23 19 -31 -27 -40 -37 -7 -94 -31 -103 -45 -3 -4 -18 -14 -35
-23 -16 -8 -41 -27 -54 -41 -14 -14 -28 -26 -33 -26 -4 0 -7 48 -7 108 1 59 3
100 6 91 2 -8 18 -23 35 -34 30 -18 31 -18 24 0 -6 18 -6 18 12 2 20 -19 52
-23 52 -7 0 6 3 9 8 9 22 -4 33 4 42 26 5 14 16 25 24 25 8 0 18 5 22 11 5 8
-1 10 -20 7 -18 -4 -29 0 -35 10 -8 13 -13 14 -41 2 -27 -11 -33 -11 -41 1 -5
8 -8 19 -8 24 0 6 3 4 6 -2 2 -7 13 -13 22 -13 24 0 81 20 80 28 -3 20 3 30
22 35 14 4 20 11 16 21 -3 8 -2 18 3 21 6 4 10 24 10 46 l0 39 -49 0 c-43 0
-54 -5 -85 -35 -36 -34 -59 -48 -37 -21 6 7 9 20 5 29 -3 8 0 25 6 37 8 14 8
25 2 29 -5 3 -13 17 -17 31 -7 23 -23 41 -74 82 -17 15 -21 15 -21 3z m140
-279 c0 -3 -4 -6 -9 -6 -12 0 -66 -51 -72 -67 -2 -8 -9 -9 -17 -4 -10 6 -4 14
22 30 39 24 41 28 26 51 -7 11 -11 9 -19 -12 -5 -14 -14 -29 -19 -32 -14 -8
-4 25 14 49 14 19 16 19 28 3 15 -21 27 -13 18 10 -5 16 -4 16 11 0 9 -9 17
-19 17 -22z m-285 4 c3 -5 1 -10 -4 -10 -6 0 -11 5 -11 10 0 6 2 10 4 10 3 0
8 -4 11 -10z m115 -43 c0 -4 -7 -2 -15 7 -8 8 -15 21 -15 28 1 14 30 -20 30
-35z m-35 -36 c3 -5 1 -12 -5 -16 -5 -3 -10 -2 -10 4 0 5 -12 12 -27 14 -27 4
-26 4 4 6 17 0 34 -3 38 -8z m50 -1 c3 -5 1 -10 -4 -10 -6 0 -11 5 -11 10 0 6
2 10 4 10 3 0 8 -4 11 -10z m-365 -20 c0 -5 -5 -10 -11 -10 -5 0 -7 5 -4 10 3
6 8 10 11 10 2 0 4 -4 4 -10z m498 -7 c-16 -2 -40 -2 -55 0 -16 2 -3 4 27 4
30 0 43 -2 28 -4z m-401 -35 c-3 -8 -6 -5 -6 6 -1 11 2 17 5 13 3 -3 4 -12 1
-19z m-74 -48 c3 0 3 8 0 17 -6 14 -3 14 19 -3 17 -12 22 -21 14 -26 -6 -4
-13 -3 -14 2 -2 6 -8 8 -13 5 -12 -8 -49 13 -49 27 0 6 8 4 18 -5 10 -10 21
-17 25 -17z m85 22 c12 9 11 5 -3 -12 -11 -14 -21 -27 -22 -29 -2 -2 -3 9 -2
25 0 16 3 23 6 16 4 -10 8 -10 21 0z m662 -4 c0 -11 -12 -10 -30 2 -12 7 -10
9 8 7 12 0 22 -5 22 -9z m31 -68 c15 -15 15 -17 -1 -28 -15 -9 -22 -6 -44 18
l-26 30 28 -2 c15 -1 34 -9 43 -18z m-736 -10 c24 0 25 -16 1 -18 -16 -1 -22
4 -23 21 0 12 1 16 4 10 3 -7 11 -13 18 -13z m655 -7 c0 -5 -5 -15 -10 -23 -8
-12 -10 -11 -10 8 0 12 5 22 10 22 6 0 10 -3 10 -7z m-692 -19 c-10 -10 -58
-12 -52 -2 3 5 12 7 20 4 7 -3 16 -1 20 5 3 6 9 8 12 5 3 -3 3 -9 0 -12z m386
-143 c3 -5 35 -17 71 -26 36 -10 65 -21 65 -26 0 -12 131 -31 217 -31 82 0
163 16 175 36 16 25 7 -13 -14 -60 -20 -43 -23 -66 -23 -184 0 -135 29 -345
47 -334 4 3 5 -2 2 -11 -4 -8 1 -31 11 -51 26 -56 23 -336 -4 -320 -4 3 -15
-17 -25 -44 -17 -46 -82 -120 -106 -120 -5 0 -17 -8 -27 -18 -27 -28 -115 -53
-220 -63 -103 -9 -142 -25 -163 -63 -18 -34 -34 -33 -61 4 -25 33 -85 54 -184
64 -71 6 -163 35 -190 59 -11 9 -39 33 -62 52 -27 24 -47 53 -59 85 -10 28
-21 50 -25 50 -13 0 -29 91 -28 167 0 68 24 215 29 188 3 -10 5 3 30 150 6 39
12 131 13 205 1 109 -2 143 -16 175 -10 21 -23 43 -30 48 -7 5 9 6 38 2 132
-16 182 -17 265 -5 50 7 90 16 90 20 0 4 24 12 53 19 28 7 66 18 82 26 37 17
42 17 49 6z"/>
<path d="M1580 2086 c0 -17 14 -29 23 -20 8 8 -3 34 -14 34 -5 0 -9 -6 -9 -14z"/>
<path d="M1161 1885 c-18 -8 -42 -15 -52 -15 -11 0 -19 -4 -19 -8 0 -22 -102
-37 -251 -37 l-156 0 15 -40 c22 -59 18 -251 -8 -410 -31 -187 -32 -189 -42
-196 -15 -10 -14 -202 0 -207 7 -2 12 -13 12 -25 1 -12 15 -51 33 -87 26 -51
43 -72 82 -97 28 -18 56 -37 63 -43 19 -17 66 -29 180 -45 104 -15 159 -34
169 -61 6 -17 33 -19 33 -1 0 23 64 48 149 58 97 11 202 34 210 47 3 4 24 19
46 32 79 47 134 144 135 238 0 28 5 52 10 52 6 0 10 11 10 25 0 14 -4 25 -10
25 -5 0 -10 23 -10 52 0 28 -7 77 -15 107 -36 139 -49 239 -48 371 0 103 4
144 17 173 l16 38 -27 -8 c-42 -12 -252 -7 -303 6 -25 7 -56 15 -70 18 -14 3
-27 9 -30 13 -6 7 -86 40 -98 40 -4 -1 -22 -7 -41 -15z m38 -176 c113 2 219 4
234 4 25 2 31 -3 44 -41 14 -42 10 -70 -6 -44 -13 22 -109 52 -166 52 l-55 0
0 -224 c0 -130 4 -236 10 -252 14 -35 6 -41 -21 -15 -28 26 -45 27 -61 1 -7
-11 -15 -20 -18 -20 -3 0 -4 115 -2 255 l3 255 -40 0 c-75 0 -138 -20 -171
-53 l-32 -32 29 50 c16 28 28 56 25 64 -3 9 0 11 9 6 7 -5 105 -7 218 -6z
m249 -276 c6 -21 25 -85 42 -143 41 -141 52 -174 60 -180 4 -3 17 -37 29 -77
11 -39 33 -85 46 -102 l26 -30 -30 9 c-43 12 -48 16 -55 50 -5 28 -26 35 -26
9 0 -6 5 -7 10 -4 6 3 10 -2 10 -12 0 -10 -16 -28 -35 -40 -44 -29 -49 -29
-29 2 18 27 16 59 -9 140 -8 28 -22 77 -31 110 -9 33 -21 62 -26 65 -4 3 -11
22 -15 43 -4 20 -11 39 -15 42 -4 3 -23 -40 -41 -95 -18 -55 -35 -100 -39
-100 -4 0 -22 -42 -40 -92 -57 -164 -63 -178 -74 -178 -10 0 -96 186 -96 209
0 6 -4 11 -9 11 -7 0 -78 167 -96 228 -14 48 -22 31 -86 -198 -20 -74 -42
-136 -48 -138 -18 -6 -13 -22 17 -48 15 -14 20 -23 12 -20 -8 3 -23 9 -32 12
-10 4 -18 12 -18 20 0 8 -10 3 -26 -13 -14 -14 -28 -23 -31 -19 -3 3 3 13 14
23 20 17 53 100 53 130 0 19 26 44 35 35 4 -4 5 2 1 13 -7 26 18 115 28 95 3
-8 4 -1 1 15 -4 24 -3 27 6 15 8 -12 9 -9 5 12 -4 17 -1 32 10 43 9 8 13 22
10 30 -3 8 -1 15 5 15 6 0 8 7 5 16 -3 8 1 23 10 32 15 15 18 14 30 -3 8 -10
14 -23 14 -29 0 -5 2 -7 5 -5 2 3 -2 23 -10 44 -16 46 -19 85 -6 85 5 0 13
-12 19 -27 6 -16 23 -62 38 -103 16 -41 34 -81 41 -88 17 -17 27 -58 19 -77
-3 -9 0 -15 8 -15 8 0 16 -8 19 -17 17 -57 47 -125 61 -139 10 -10 14 -25 11
-38 -5 -18 -4 -17 9 4 18 29 20 44 6 35 -5 -3 -5 7 1 25 6 16 15 27 20 24 5
-3 6 2 3 11 -8 20 25 97 38 89 5 -3 6 7 3 23 -5 21 -4 24 4 13 5 -8 13 -11 17
-7 4 3 1 14 -6 23 -9 10 -10 18 -3 22 9 6 33 67 80 205 19 57 36 60 51 10z
m-448 -33 c0 -5 -5 -10 -11 -10 -5 0 -7 5 -4 10 3 6 8 10 11 10 2 0 4 -4 4
-10z"/>
<path d="M1437 1680 c10 -11 18 -20 19 -20 1 0 0 9 -3 20 -3 11 -12 20 -19 20
-11 0 -10 -5 3 -20z"/>
<path d="M1401 1403 c-1 -17 21 -65 38 -83 12 -12 13 -11 6 10 -4 14 -11 27
-14 30 -4 3 -12 16 -18 30 -6 14 -12 20 -12 13z"/>
<path d="M1366 1315 c-3 -9 -6 -22 -5 -28 0 -7 5 -1 10 12 5 13 8 26 5 28 -2
2 -6 -3 -10 -12z"/>
<path d="M1036 1300 c3 -14 11 -32 16 -40 6 -10 7 -7 2 10 -3 14 -11 32 -16
40 -6 10 -7 7 -2 -10z"/>
<path d="M1451 1284 c0 -11 3 -14 6 -6 3 7 2 16 -1 19 -3 4 -6 -2 -5 -13z"/>
<path d="M1060 1235 c0 -5 5 -17 10 -25 5 -8 10 -10 10 -5 0 6 -5 17 -10 25
-5 8 -10 11 -10 5z"/>
<path d="M1467 1219 c4 -13 8 -18 11 -10 2 7 -1 18 -6 23 -8 8 -9 4 -5 -13z"/>
<path d="M1081 1179 c-1 -9 8 -26 19 -39 11 -13 20 -18 20 -12 0 6 -6 17 -13
24 -8 7 -16 20 -20 28 -4 13 -6 12 -6 -1z"/>
<path d="M1481 1174 c0 -11 3 -14 6 -6 3 7 2 16 -1 19 -3 4 -6 -2 -5 -13z"/>
<path d="M1500 1115 c0 -5 5 -17 10 -25 5 -8 10 -10 10 -5 0 6 -5 17 -10 25
-5 8 -10 11 -10 5z"/>
<path d="M1126 1085 c7 -33 24 -58 24 -34 -1 7 -7 25 -15 39 l-15 25 6 -30z"/>
<path d="M1276 1095 c-9 -26 -7 -32 5 -12 6 10 9 21 6 23 -2 3 -7 -2 -11 -11z"/>
<path d="M1521 1040 c0 -8 4 -22 9 -30 12 -18 12 -2 0 25 -6 13 -9 15 -9 5z"/>
<path d="M1150 1024 c0 -6 7 -19 16 -30 14 -18 14 -18 3 6 -14 31 -19 36 -19
24z"/>
<path d="M860 1010 c0 -5 5 -10 10 -10 6 0 10 5 10 10 0 6 -4 10 -10 10 -5 0
-10 -4 -10 -10z"/>
<path d="M1197 914 c3 -7 9 -14 14 -14 14 0 10 17 -5 23 -10 4 -13 1 -9 -9z"/>
</g>
</svg>
